<?xml version="1.0" standalone="no"?><!DOCTYPE svg PUBLIC "-//W3C//DTD SVG 1.1//EN" "http://www.w3.org/Graphics/SVG/1.1/DTD/svg11.dtd"><svg height="1024" node-id="1" sillyvg="true" template-height="1024" template-width="1024" version="1.1" viewBox="0 0 1024 1024" width="1024" xmlns="http://www.w3.org/2000/svg" xmlns:xlink="http://www.w3.org/1999/xlink"><defs node-id="32"><linearGradient gradientUnits="objectBoundingBox" id="linearGradient-1" node-id="5" spreadMethod="pad" x1="0.5" x2="0.5" y1="0.68847996" y2="0.000000000000000000000000000000006162976"><stop offset="0" stop-color="#95a4f7" stop-opacity="0"></stop><stop offset="1" stop-color="#c5d6ff" stop-opacity="0.44536883"></stop></linearGradient><linearGradient gradientUnits="objectBoundingBox" id="linearGradient-2" node-id="8" spreadMethod="pad" x1="0.5" x2="0.5" y1="1" y2="0.000000000000000000000000000000006162976"><stop offset="0" stop-color="#95a4f7" stop-opacity="0"></stop><stop offset="1" stop-color="#c5d6ff" stop-opacity="0.44536883"></stop></linearGradient><linearGradient gradientUnits="objectBoundingBox" id="linearGradient-3" node-id="11" spreadMethod="pad" x1="0.5" x2="0.5" y1="1" y2="0.000000000000000000000000000000006162976"><stop offset="0" stop-color="#95a4f7" stop-opacity="0"></stop><stop offset="1" stop-color="#c5d6ff" stop-opacity="0.44536883"></stop></linearGradient></defs><path d="M 300.95 801.12 L 207.11 731.43 L 308.83 694.56 Z" fill="#e2e9ff" fill-rule="evenodd" id="路径-27" node-id="16" stroke="none" target-height="106.56" target-width="101.719986" target-x="207.11" target-y="694.56"></path><g node-id="56"><path d="M 512.00 668.55 C 794.77 668.55 1024.00 807.52 1024.00 978.95 C 1024.00 994.25 1022.17 1009.29 1018.65 1024.00 L 5.35 1024.00 C 1.83 1009.29 0.00 994.25 0.00 978.95 C 0.00 807.52 229.23 668.55 512.00 668.55 Z" fill="url(#linearGradient-1)" fill-rule="evenodd" group-id="1" id="形状结合" node-id="18" stroke="none" target-height="355.45" target-width="1024" target-x="0" target-y="668.55"></path><path d="M 81.27 219.43 L 81.27 218.98 C 78.60 219.28 75.89 219.43 73.14 219.43 C 32.75 219.43 0.00 186.68 0.00 146.29 C 0.00 105.89 32.75 73.14 73.14 73.14 C 77.90 73.14 82.55 73.60 87.06 74.46 C 101.74 31.16 142.72 0.00 190.98 0.00 C 250.41 0.00 298.81 47.25 300.64 106.24 C 303.31 105.85 306.05 105.65 308.83 105.65 C 340.24 105.65 365.71 131.12 365.71 162.54 C 365.71 193.96 340.24 219.43 308.83 219.43 C 306.07 219.43 303.35 219.23 300.70 218.85 L 300.70 219.43 L 81.27 219.43 Z" fill="url(#linearGradient-2)" fill-rule="evenodd" group-id="1" id="形状结合" node-id="19" stroke="none" target-height="219.43" target-width="365.71" target-x="0" target-y="0"></path><path d="M 715.17 260.06 L 715.17 259.91 C 713.83 260.01 712.48 260.06 711.11 260.06 C 681.94 260.06 658.29 236.41 658.29 207.24 C 658.29 178.06 681.94 154.41 711.11 154.41 C 714.24 154.41 717.30 154.68 720.28 155.20 C 731.39 126.22 759.49 105.65 792.38 105.65 C 833.94 105.65 867.82 138.48 869.52 179.62 C 872.16 179.08 874.91 178.79 877.71 178.79 C 900.16 178.79 918.35 196.99 918.35 219.43 C 918.35 241.87 900.16 260.06 877.71 260.06 C 874.93 260.06 872.21 259.78 869.59 259.25 L 869.59 260.06 L 715.17 260.06 Z" fill="url(#linearGradient-3)" fill-rule="evenodd" group-id="1" id="形状结合备份" node-id="20" stroke="none" target-height="154.41" target-width="260.06" target-x="658.29" target-y="105.65"></path><g node-id="57"><path d="M 203.28 506.66 L 204.68 507.48 L 205.62 508.70 L 206.04 510.19 L 205.84 511.80 L 200.93 525.64 L 196.03 537.84 L 191.14 548.55 L 186.29 557.89 L 181.47 566.00 L 176.71 572.99 L 172.28 578.61 L 167.90 583.40 L 163.55 587.44 L 159.24 590.80 L 154.95 593.53 L 150.65 595.69 L 146.34 597.30 L 142.00 598.41 L 140.80 598.61 L 140.49 599.02 L 137.11 603.23 L 133.31 607.64 L 131.72 609.41 L 125.86 615.45 L 120.02 620.72 L 114.20 625.25 L 108.39 629.12 L 102.57 632.35 L 96.73 634.98 L 90.53 637.13 L 84.28 638.66 L 77.95 639.59 L 71.50 639.91 L 64.91 639.63 L 58.16 638.72 L 56.65 638.12 L 55.54 637.04 L 54.92 635.63 L 54.88 634.00 L 55.48 632.49 L 56.56 631.39 L 57.98 630.76 L 59.60 630.73 L 65.61 631.54 L 71.47 631.79 L 77.21 631.49 L 82.87 630.65 L 88.46 629.26 L 94.01 627.31 L 99.22 624.94 L 104.44 622.01 L 109.69 618.50 L 114.98 614.34 L 120.31 609.51 L 125.71 603.94 L 127.32 602.15 L 130.16 598.88 L 129.21 598.78 L 124.37 597.89 L 119.34 596.41 L 114.10 594.29 L 112.37 593.47 L 111.65 593.01 L 108.73 590.46 L 106.35 587.92 L 104.45 585.39 L 102.99 582.86 L 101.84 580.12 L 101.13 577.42 L 100.83 574.75 L 100.92 572.06 L 101.41 569.43 L 102.28 566.82 L 103.57 564.21 L 105.31 561.58 L 107.65 558.89 L 110.37 556.41 L 113.51 554.14 L 116.88 552.20 L 120.48 550.56 L 124.33 549.23 L 128.29 548.25 L 132.30 547.66 L 136.39 547.45 L 141.03 547.72 L 144.86 548.40 L 147.99 549.43 L 150.55 550.76 L 152.62 552.38 L 154.37 554.41 L 155.68 556.71 L 156.55 559.35 L 156.96 562.39 L 156.87 565.90 L 156.17 570.04 L 154.77 574.73 L 152.53 580.06 L 149.31 586.14 L 148.43 587.59 L 149.23 587.21 L 153.27 584.93 L 157.36 581.99 L 161.51 578.32 L 165.74 573.84 L 170.05 568.46 L 174.46 562.06 L 178.81 554.80 L 183.24 546.34 L 187.77 536.55 L 192.37 525.30 L 197.05 512.44 L 198.13 509.23 L 198.95 507.82 L 200.17 506.88 L 201.66 506.47 L 203.28 506.66 Z M 136.74 590.71 L 136.94 590.45 L 141.10 584.51 L 144.17 579.43 L 146.32 575.12 L 147.72 571.47 L 148.55 568.16 L 148.84 565.42 L 148.67 563.15 L 148.13 561.25 L 147.24 559.65 L 145.99 558.30 L 144.36 557.20 L 142.29 556.35 L 139.68 555.79 L 136.39 555.58 L 133.11 555.75 L 129.90 556.22 L 126.74 556.99 L 123.66 558.04 L 120.80 559.32 L 118.14 560.82 L 115.66 562.58 L 113.56 564.47 L 111.80 566.49 L 110.27 568.88 L 109.35 571.22 L 108.97 573.54 L 109.09 575.89 L 109.71 578.13 L 110.91 580.47 L 112.77 582.95 L 115.45 585.61 L 116.36 586.37 L 117.49 586.91 L 122.00 588.70 L 126.33 589.93 L 130.52 590.62 L 134.60 590.81 L 136.74 590.71 Z" fill="#dee7fd" fill-rule="nonzero" group-id="1,2" id="路径-24" node-id="21" stroke="none" target-height="133.43997" target-width="151.15999" target-x="54.88" target-y="506.47"></path></g><g node-id="58"><path d="M 783.41 480.15 L 911.59 456.69 L 915.58 523.55 L 783.41 480.15 Z M 775.26 455.80 L 827.16 395.31 L 854.79 425.55 L 775.26 455.80 Z" fill="#dee6fc" fill-rule="evenodd" group-id="1,3" id="形状结合" node-id="22" stroke="none" target-height="128.23999" target-width="140.32" target-x="775.26" target-y="395.31"></path></g><g node-id="59"><path d="M 300.74 690.01 L 719.74 690.01 L 719.74 801.01 L 300.74 801.01 Z" fill="#bcd0ff" fill-rule="evenodd" group-id="1,4" id="矩形" node-id="24" stroke="none" target-height="111" target-width="419" target-x="300.74" target-y="690.01"></path><path d="M 719.74 690.01 L 734.68 671.71 L 734.68 782.71 L 719.74 801.01 Z" fill="#9eb8fe" fill-rule="evenodd" group-id="1,4" id="矩形" node-id="25" stroke="none" target-height="129.29999" target-width="14.940002" target-x="719.74" target-y="671.71"></path><path d="M 315.68 671.71 L 734.68 671.71 L 719.74 690.01 L 300.74 690.01 Z" fill="#abc3fc" fill-rule="evenodd" group-id="1,4" id="矩形" node-id="26" stroke="none" target-height="18.299988" target-width="433.94" target-x="300.74" target-y="671.71"></path></g></g><path d="M 409.48 676.64 L 469.26 517.44 L 613.13 672.70 L 595.53 689.01 L 478.07 562.26 L 431.95 685.08 Z" fill="#abc3fc" fill-rule="nonzero" id="路径-30" node-id="27" stroke="none" target-height="171.57" target-width="203.65" target-x="409.48" target-y="517.44"></path><path d="M 546.41 502.73 C 568.16 478.99 568.16 443.40 545.42 420.66 C 522.69 397.92 483.57 397.91 460.37 415.65 L 384.27 340.57 C 374.39 330.68 359.56 333.64 352.64 345.51 C 312.10 420.66 322.98 516.57 386.25 579.84 C 449.52 643.12 545.42 654.00 620.56 613.46 C 632.42 607.53 634.40 591.71 625.50 581.82 L 546.41 502.73 Z" fill="#9eb8fe" fill-rule="evenodd" id="Fill-1" node-id="28" stroke="none" target-height="323.32" target-width="322.30002" target-x="312.1" target-y="330.68"></path><path d="M 339.91 350.14 C 346.83 338.27 361.66 335.31 371.55 345.19 L 371.55 345.19 L 447.64 420.28 C 470.84 402.53 509.96 402.54 532.70 425.29 C 555.44 448.03 555.44 483.62 533.68 507.35 L 533.68 507.35 L 612.78 586.45 C 621.68 596.34 619.70 612.15 607.83 618.09 C 532.70 658.63 436.79 647.75 373.52 584.47 C 310.25 521.19 299.37 425.29 339.91 350.14 Z M 460.28 255.89 C 492.00 249.19 524.93 249.28 556.52 256.73 C 586.72 263.86 614.90 277.80 638.91 297.52 C 664.49 318.52 683.90 346.44 695.25 377.55 C 705.12 404.59 708.46 434.14 706.43 462.81 C 705.32 478.46 702.95 494.30 698.44 509.36 C 696.74 515.04 691.13 518.08 685.45 516.76 C 679.98 515.51 676.48 509.03 678.08 503.72 C 678.28 503.03 678.48 502.34 678.68 501.65 C 680.37 495.66 681.71 489.52 682.80 483.39 C 683.20 481.14 683.56 478.89 683.89 476.64 C 683.98 476.00 684.07 475.36 684.16 474.72 L 684.10 475.16 L 684.07 475.36 L 684.07 475.36 C 684.03 475.66 683.99 475.95 683.96 476.24 C 683.94 476.36 683.93 476.43 683.93 476.46 L 683.93 476.48 C 683.94 476.43 683.98 476.08 684.04 475.68 L 684.07 475.42 C 684.16 474.75 684.24 474.12 684.16 474.72 L 684.10 475.15 L 684.22 474.15 C 684.27 473.75 684.32 473.35 684.37 472.95 L 684.51 471.74 C 685.12 466.19 685.53 460.63 685.73 455.05 C 685.97 448.69 685.92 442.33 685.59 435.98 C 685.41 432.58 685.15 429.19 684.81 425.80 C 684.65 424.06 684.42 422.34 684.21 420.59 L 684.24 420.86 L 684.16 420.30 C 684.10 419.88 684.04 419.46 683.98 419.04 L 683.79 417.79 C 682.65 410.55 681.09 403.38 679.12 396.32 C 678.07 392.56 676.90 388.85 675.60 385.18 C 674.92 383.19 674.19 381.21 673.42 379.24 C 673.07 378.36 672.71 377.49 672.36 376.61 C 672.35 376.59 672.34 376.57 672.33 376.55 L 672.29 376.43 C 672.29 376.41 672.28 376.39 672.27 376.37 L 672.27 376.36 L 672.18 376.17 L 672.18 376.17 L 672.02 375.85 C 668.70 368.21 664.82 360.83 660.44 353.77 C 658.16 350.10 655.74 346.51 653.19 343.01 C 652.61 342.22 652.03 341.45 651.45 340.67 L 651.45 340.67 L 651.36 340.56 L 651.52 340.76 L 651.52 340.76 L 651.88 341.22 L 651.86 341.19 C 651.59 340.84 650.62 339.55 651.29 340.45 L 651.36 340.55 L 651.13 340.25 C 650.42 339.35 649.70 338.45 648.97 337.56 L 647.88 336.23 C 643.21 330.64 638.21 325.34 632.90 320.36 C 630.25 317.87 627.53 315.47 624.74 313.16 C 624.01 312.55 623.26 311.94 622.51 311.34 C 622.43 311.27 622.13 311.04 621.81 310.79 L 621.57 310.61 C 620.96 310.14 620.44 309.73 621.33 310.38 C 622.79 311.47 620.39 309.67 620.11 309.47 C 619.43 308.95 618.74 308.44 618.05 307.94 C 612.28 303.72 606.27 299.83 600.05 296.31 C 596.88 294.51 593.66 292.81 590.40 291.19 C 588.65 290.34 586.91 289.51 585.16 288.71 C 584.38 288.35 583.55 287.98 582.81 287.65 C 582.69 287.60 582.51 287.53 582.32 287.45 L 582.17 287.39 C 582.15 287.38 582.12 287.37 582.10 287.36 L 581.87 287.28 C 581.84 287.27 581.82 287.26 581.79 287.25 L 581.65 287.19 C 581.34 287.07 581.08 286.98 581.03 286.96 L 581.02 286.96 C 581.08 286.98 581.41 287.10 582.20 287.38 L 582.38 287.44 C 575.55 284.96 568.94 282.21 561.95 280.14 C 554.95 278.07 547.84 276.38 540.65 275.08 C 538.71 274.72 536.76 274.40 534.81 274.11 C 533.94 273.97 533.07 273.87 532.19 273.73 L 532.58 273.79 L 531.72 273.68 C 528.61 273.30 525.49 272.99 522.37 272.76 L 520.49 272.63 C 513.02 272.13 505.53 272.04 498.04 272.35 C 494.20 272.52 490.37 272.78 486.54 273.15 C 484.61 273.34 482.69 273.56 480.77 273.79 L 480.77 273.79 L 480.50 273.84 L 480.45 273.84 C 480.39 273.84 480.32 273.85 480.25 273.86 L 480.18 273.87 L 480.18 273.87 L 479.60 273.95 L 479.41 273.97 L 479.41 273.97 L 479.49 273.97 L 478.82 274.06 L 478.82 274.06 L 477.47 274.27 C 469.69 275.48 461.98 277.11 454.37 279.15 L 454.37 279.15 L 454.35 279.11 C 448.64 280.65 443.14 277.21 441.37 271.71 C 439.62 266.29 443.40 260.10 448.74 258.67 C 452.56 257.64 456.41 256.71 460.28 255.89 Z M 489.94 313.56 C 511.81 307.70 534.79 307.29 556.85 312.38 C 575.66 316.84 593.21 325.54 608.15 337.82 C 624.14 350.88 636.11 368.38 643.17 387.74 C 649.17 404.20 651.21 422.31 649.96 439.75 C 649.27 449.47 647.83 459.32 645.02 468.66 C 643.31 474.35 637.68 477.38 631.99 476.07 C 626.49 474.82 622.99 468.34 624.58 463.03 C 625.57 459.66 626.40 456.25 627.05 452.80 C 627.33 451.37 627.58 449.93 627.81 448.49 C 627.93 447.73 628.04 446.98 628.16 446.22 L 628.07 446.76 L 628.06 446.85 C 628.04 447.00 628.03 447.15 628.01 447.31 C 627.80 449.04 628.45 444.42 628.16 446.22 L 628.08 446.76 L 628.12 446.41 L 628.12 446.41 L 628.17 445.97 C 628.60 442.37 628.88 438.75 629.01 435.12 C 629.16 431.40 629.13 427.67 628.94 423.95 C 628.85 421.96 628.70 419.98 628.51 418.00 C 628.41 416.96 628.29 415.94 628.17 414.93 L 628.20 415.23 L 628.14 414.80 L 628.14 414.80 L 628.02 414.02 C 627.35 409.71 626.43 405.45 625.26 401.25 C 624.65 399.04 623.97 396.87 623.21 394.71 C 622.83 393.61 622.43 392.52 622.00 391.42 C 621.79 390.87 621.56 390.33 621.35 389.77 L 621.38 389.88 L 620.94 388.87 C 619.24 385.11 617.32 381.46 615.20 377.92 L 614.56 376.86 C 613.20 374.68 611.77 372.56 610.27 370.49 C 609.89 369.96 609.49 369.44 609.11 368.92 L 609.53 369.49 L 609.44 369.41 C 608.67 368.77 608.51 368.46 608.61 368.47 L 608.62 368.47 L 608.41 368.18 C 608.19 367.87 607.97 367.56 607.76 367.28 L 607.55 367.02 C 604.80 363.73 601.85 360.62 598.72 357.68 C 597.15 356.22 595.55 354.81 593.90 353.45 C 593.08 352.75 592.22 352.12 591.41 351.44 C 593.05 352.81 592.44 352.32 591.64 351.68 L 591.50 351.57 C 591.45 351.53 591.40 351.49 591.36 351.45 L 591.21 351.34 C 590.91 351.10 590.63 350.88 590.49 350.77 C 587.03 348.26 583.43 345.94 579.70 343.84 C 576.78 342.19 573.73 340.85 570.72 339.41 L 569.52 338.83 C 569.59 338.87 569.53 338.84 569.26 338.71 L 569.10 338.63 C 568.94 338.55 568.74 338.44 568.49 338.31 L 568.35 338.24 L 568.34 338.24 L 568.34 338.24 L 568.29 338.22 C 567.79 338.02 567.29 337.83 566.78 337.63 C 565.88 337.28 564.96 336.95 564.05 336.62 C 562.00 335.89 559.94 335.22 557.86 334.61 C 553.67 333.37 549.41 332.36 545.11 331.58 C 544.04 331.39 542.94 331.20 541.85 331.04 C 541.82 331.03 541.79 331.03 541.75 331.02 L 541.72 331.02 L 541.86 331.03 L 541.86 331.03 L 542.05 331.04 C 541.61 331.01 541.17 330.92 540.74 330.87 C 538.53 330.61 536.32 330.40 534.11 330.26 C 529.63 329.96 525.14 329.91 520.67 330.10 C 518.40 330.19 516.14 330.35 513.88 330.56 C 512.74 330.67 511.61 330.81 510.48 330.93 L 511.12 330.86 L 511.02 330.89 C 510.55 331.02 509.95 331.04 509.45 331.09 L 509.21 331.12 C 504.62 331.84 500.07 332.81 495.58 334.01 L 495.58 334.01 C 489.83 335.53 484.31 332.11 482.53 326.60 C 480.78 321.19 484.58 314.98 489.94 313.56 Z M 507.83 362.38 C 520.25 359.10 533.28 358.87 545.81 361.72 C 568.37 366.87 586.87 382.87 595.10 404.39 C 600.52 418.64 600.73 435.76 596.32 450.34 C 594.60 456.04 588.91 459.08 583.17 457.76 C 577.63 456.51 574.11 450.02 575.71 444.70 C 576.25 442.88 576.69 441.03 577.04 439.17 C 577.15 438.55 577.27 437.92 577.37 437.29 L 577.37 437.29 L 577.43 436.96 L 577.52 435.95 C 577.63 434.75 577.73 433.57 577.80 432.38 L 577.85 431.19 C 577.92 429.22 577.91 427.25 577.80 425.28 C 577.75 424.39 577.69 423.47 577.60 422.59 L 577.60 422.59 L 577.57 422.30 L 577.57 422.23 C 577.57 422.13 577.56 422.01 577.55 421.89 L 577.53 421.77 L 577.53 421.77 L 577.52 421.71 L 577.52 421.71 L 577.42 421.11 L 577.41 420.75 C 577.41 420.82 577.41 420.89 577.41 420.95 L 577.41 421.06 L 577.35 420.69 C 577.05 419.00 576.68 417.31 576.25 415.64 L 575.98 414.65 C 575.67 413.54 575.32 412.45 574.94 411.36 C 574.75 410.81 574.54 410.26 574.33 409.71 C 574.21 409.38 574.07 409.04 573.93 408.71 L 573.93 408.71 L 574.46 409.94 C 574.41 408.84 573.02 406.91 572.51 405.97 C 571.89 404.85 571.25 403.75 570.57 402.68 C 569.88 401.61 569.14 400.59 568.41 399.55 L 568.78 400.07 C 567.92 399.45 567.80 399.01 568.03 399.14 L 568.04 399.14 L 567.87 398.89 C 566.63 397.42 565.30 396.00 563.91 394.66 L 563.21 394.00 C 562.42 393.27 561.62 392.56 560.80 391.88 L 560.80 391.88 L 560.75 391.85 L 560.78 391.86 L 560.78 391.86 L 560.95 391.95 C 560.59 391.72 560.24 391.46 559.91 391.18 C 558.00 389.80 556.01 388.53 553.95 387.39 C 553.00 386.87 552.05 386.37 551.08 385.90 C 550.33 385.53 546.92 384.21 550.09 385.37 C 545.85 383.81 541.67 382.42 537.21 381.61 C 536.52 381.48 535.58 381.50 534.92 381.23 L 535.08 381.29 L 534.67 381.25 C 534.30 381.21 533.93 381.18 533.56 381.14 L 532.45 381.06 C 530.20 380.91 527.95 380.89 525.70 380.97 C 524.33 381.02 522.97 381.12 521.61 381.25 C 521.16 381.35 520.70 381.40 520.24 381.40 L 520.39 381.40 L 520.34 381.41 C 518.36 381.72 516.41 382.13 514.47 382.62 L 513.50 382.87 L 513.51 382.87 C 507.71 384.38 502.16 380.97 500.37 375.45 C 498.60 370.03 502.43 363.79 507.83 362.38 Z M 480.11 273.97 L 479.79 273.97 C 479.73 273.97 479.67 273.97 479.61 273.97 L 479.49 273.97 L 479.60 273.95 L 479.75 273.94 C 479.98 273.92 480.21 273.89 480.43 273.85 L 480.50 273.84 L 480.52 273.84 C 481.07 273.82 481.38 273.96 480.11 273.97 Z" fill="#bcd0ff" fill-rule="evenodd" id="形状结合" node-id="29" stroke="none" target-height="409.44" target-width="409.09003" target-x="299.37" target-y="249.19"></path><path d="M 489.24 422.71 C 472.99 422.71 460.36 427.67 451.33 437.60 C 442.31 447.08 438.02 459.71 438.02 475.51 L 455.84 475.51 C 455.84 464.45 458.33 455.88 463.29 449.56 C 468.70 442.11 477.05 438.50 488.33 438.50 C 497.81 438.50 505.26 440.99 510.45 446.40 C 515.41 451.36 518.12 458.36 518.12 467.38 C 518.12 473.70 515.86 479.57 511.35 485.21 C 510.00 487.01 507.29 489.72 503.68 493.33 C 491.49 504.16 484.05 512.74 480.89 519.51 C 478.18 525.15 476.83 531.69 476.83 539.14 L 476.83 544.32 L 494.88 544.32 L 494.88 539.14 C 494.88 533.04 496.23 527.63 499.17 522.66 C 501.42 518.60 504.81 514.54 509.77 510.25 C 519.70 501.45 525.79 495.59 528.05 492.88 C 533.69 485.43 536.62 476.64 536.62 466.48 C 536.62 452.94 532.33 442.34 523.98 434.67 C 515.19 426.54 503.68 422.71 489.24 422.71 Z M 485.85 560.12 C 482.02 560.12 478.86 561.25 476.15 563.95 C 473.44 566.44 472.32 569.60 472.32 573.43 C 472.32 577.27 473.44 580.43 476.15 583.13 C 478.86 585.62 482.02 586.97 485.85 586.97 C 489.69 586.97 492.85 585.62 495.56 583.13 C 498.26 580.65 499.62 577.49 499.62 573.43 C 499.62 569.60 498.26 566.44 495.78 563.95 C 493.07 561.25 489.69 560.12 485.85 560.12 Z" fill="#ffffff" fill-rule="nonzero" id="形状" node-id="30" stroke="none" target-height="164.25998" target-width="98.600006" target-x="438.02" target-y="422.71"></path></svg>